<svg width="24" height="24" viewBox="0 0 24 24" fill="none" xmlns="http://www.w3.org/2000/svg">
<path d="M21.5847 11.6291C21.4351 11.5494 21.3753 11.2801 21.3055 11.1406C21.1559 10.8514 21.0163 10.5722 20.8668 10.293C20.6375 9.86429 20.4281 9.38569 20.1489 8.98686C18.9125 7.24196 16.9981 5.91584 14.7945 5.87596C12.7605 5.83608 10.6367 6.48418 9.28068 8.05957C6.71817 11.0109 7.52581 16.0063 11.0655 17.831C14.2362 19.4662 18.8826 17.2327 17.9354 13.2344C17.6661 12.0479 16.8286 11.0708 15.672 10.6919C14.2462 10.2232 13.2827 10.7255 12.8839 12.2112C12.485 13.6968 13.628 14.7998 14.984 15.2984C15.1036 15.2386 15.3529 15.2087 15.4327 15.3482C15.5424 15.5377 15.313 15.7172 15.1635 15.787C13.5482 16.5946 11.3745 15.5277 10.8361 13.8426C10.3775 12.4368 11.0754 10.8913 12.1024 9.92412C12.7206 9.34581 13.5183 8.91706 14.3758 8.84727C15.9113 8.72762 17.5265 9.01677 18.6134 10.1834C19.3811 11.001 20.1987 12.0579 20.3084 13.1945C20.3981 14.1019 20.3782 14.5207 20.3383 14.7101C20.3184 14.8298 20.3583 14.9295 20.438 15.0192C20.7372 15.3283 21.3952 16.0661 21.465 16.8239C21.465 16.9236 21.4451 17.0134 21.3753 17.0931C21.2158 17.2826 20.7671 17.6316 19.5606 17.8509C19.4808 17.8609 19.4011 17.9008 19.3512 17.9706C19.092 18.2896 18.2544 19.2668 17.6462 19.7155C17.5465 19.7853 17.4767 19.885 17.4568 20.0046C17.387 20.4732 17.1477 21.7196 16.4497 22.3478C16.3899 22.3976 16.3201 22.4275 16.2403 22.4375C15.9013 22.4774 14.9541 22.4574 13.8872 21.2609C13.8274 21.1812 13.7277 21.1313 13.628 21.1313C13.269 21.1313 12.262 21.0815 10.8461 20.7425C10.7564 20.7225 10.6567 20.7325 10.5769 20.7823C10.1282 21.0416 8.57275 21.8991 7.47596 21.7096C7.34634 21.6897 7.23666 21.59 7.20674 21.4604C7.06715 20.9818 6.78797 19.7753 7.13695 18.6984C7.17683 18.5987 7.16686 18.4791 7.09706 18.3993C6.85776 18.1102 6.31934 17.4022 6.01025 16.8838C5.95042 16.784 5.87066 16.7142 5.76098 16.6943C5.25247 16.5946 3.71696 16.1958 2.42075 14.7998C2.33101 14.7101 2.29113 14.5605 2.33101 14.4409C2.50052 13.9424 3.05888 12.6761 4.68413 11.7189C4.78383 11.659 4.84366 11.5693 4.8636 11.4596C4.91346 11.0708 5.07299 10.0537 5.33223 9.50534C5.38209 9.39566 5.39206 9.27601 5.33223 9.16633C5.02314 8.64785 4.15567 7.00266 4.28529 5.46716C4.29526 5.35748 4.39498 5.22786 4.49469 5.178C4.97329 4.94867 6.34925 4.44016 8.24371 5.04838C8.34342 5.08827 8.44313 5.07829 8.53287 5.02844C8.90179 4.80908 9.91881 4.23077 10.6267 4.04133C10.7464 4.01142 10.8461 3.93165 10.886 3.80203C11.0455 3.34337 11.5241 2.16681 12.6508 1.58851C12.7605 1.53865 12.8901 1.53865 12.9998 1.59848C13.3687 1.79789 14.2262 2.3762 14.5752 3.44308C14.625 3.59264 14.7347 3.70232 14.8843 3.73223C15.2731 3.79206 16.021 3.93165 16.5693 4.20086C16.6491 4.24075 16.7488 4.25072 16.8286 4.20086C17.1776 4.02139 18.1547 3.5727 18.8028 3.71229C18.9025 3.73223 18.9823 3.80203 19.0321 3.89177C19.2216 4.21083 19.6404 5.06832 19.3612 5.82611L19.3213 5.97567C19.9295 6.59386 20.6873 7.28185 21.0861 8.03963C21.3952 8.60797 21.5647 9.22616 21.6345 9.86429C21.6744 10.1834 21.6844 10.5024 21.6844 10.8215C21.6844 10.8713 21.6445 11.669 21.5847 11.6391V11.6291Z" stroke="black" stroke-width="0.997082" stroke-linecap="round" stroke-linejoin="round"/>
</svg>
