<svg xmlns="http://www.w3.org/2000/svg" viewBox="0 0 24 24" width="16" height="16" color="#000000" fill="none" stroke="currentColor" stroke-width="1.5" stroke-linejoin="round">
    <path d="M2.5 12C2.5 7.52166 2.5 5.28249 3.89124 3.89124C5.28249 2.5 7.52166 2.5 12 2.5C16.4783 2.5 18.7175 2.5 20.1088 3.89124C21.5 5.28249 21.5 7.52166 21.5 12C21.5 16.4783 21.5 18.7175 20.1088 20.1088C18.7175 21.5 16.4783 21.5 12 21.5C7.52166 21.5 5.28249 21.5 3.89124 20.1088C2.5 18.7175 2.5 16.4783 2.5 12Z" stroke-linecap="round"></path>
    <path d="M21.5 13.5H16.5743C15.7322 13.5 15.0706 14.2036 14.6995 14.9472C14.2963 15.7551 13.4889 16.5 12 16.5C10.5111 16.5 9.70373 15.7551 9.30054 14.9472C8.92942 14.2036 8.26777 13.5 7.42566 13.5H2.5"></path>
</svg>