<svg width="24" height="24" viewBox="0 0 24 24" fill="none" xmlns="http://www.w3.org/2000/svg">
<path d="M9.35498 13.285V7.325C9.35498 6.945 9.65498 6.625 10.045 6.605C12.135 6.445 13.625 4.445 15.765 4.185C16.595 4.085 17.455 4.215 18.175 4.635C18.495 4.825 18.795 5.075 19.045 5.355C21.075 7.625 19.525 10.245 19.525 10.245" stroke="black" stroke-linecap="round" stroke-linejoin="round"/>
<path d="M9.56506 10.355L14.7351 7.375C15.0651 7.185 15.4851 7.285 15.7051 7.605C16.8851 9.325 19.3751 9.625 20.6651 11.335C21.1651 12.005 21.4851 12.805 21.4751 13.645C21.4751 14.025 21.4051 14.395 21.2851 14.755C20.3351 17.645 17.2751 17.615 17.2751 17.615" stroke="black" stroke-linecap="round" stroke-linejoin="round"/>
<path d="M12.205 9.07501L17.375 12.055C17.705 12.245 17.825 12.665 17.665 13.005C16.755 14.885 17.745 17.185 16.905 19.155C16.575 19.925 16.035 20.595 15.305 21.015C14.975 21.205 14.615 21.325 14.245 21.405C11.265 22.025 9.76501 19.375 9.76501 19.375" stroke="black" stroke-linecap="round" stroke-linejoin="round"/>
<path d="M14.6451 10.475V16.665C14.6451 17.045 14.3451 17.365 13.9551 17.385C11.8651 17.545 10.3751 19.545 8.23506 19.805C7.40506 19.905 6.54506 19.775 5.82506 19.355C5.50506 19.165 5.20506 18.915 4.95506 18.635C2.92506 16.365 4.47507 13.745 4.47507 13.745" stroke="black" stroke-linecap="round" stroke-linejoin="round"/>
<path d="M14.435 13.645L9.26501 16.625C8.93501 16.815 8.51501 16.715 8.29501 16.395C7.11501 14.675 4.62501 14.375 3.33501 12.665C2.83501 11.995 2.51501 11.195 2.52501 10.355C2.52501 9.975 2.59501 9.60501 2.71501 9.24501C3.66501 6.35501 6.72501 6.38501 6.72501 6.38501" stroke="black" stroke-linecap="round" stroke-linejoin="round"/>
<path d="M11.795 14.925L6.62495 11.945C6.29495 11.755 6.17495 11.335 6.33495 10.995C7.24495 9.11501 6.25495 6.81501 7.09495 4.84501C7.42495 4.07501 7.96495 3.405 8.69495 2.985C9.02495 2.795 9.38495 2.67501 9.75495 2.59501C12.735 1.97501 14.2349 4.625 14.2349 4.625" stroke="black" stroke-linecap="round" stroke-linejoin="round"/>
</svg>
