<svg width="24" height="24" viewBox="0 0 24 24" fill="none" xmlns="http://www.w3.org/2000/svg">
<path d="M21.6158 21.6561H18.7629C18.5544 21.6561 18.3459 21.5683 18.2033 21.4256L16.7988 20.054L14.2311 17.5522L10.7966 14.1946C10.2809 13.6898 10.632 12.812 11.3562 12.812H14.1653C14.3738 12.812 14.5713 12.8888 14.7249 13.0424L16.7219 14.9736L19.3006 17.4754L22.1754 20.2735C22.6912 20.7782 22.34 21.6561 21.6158 21.6561Z" stroke="black" stroke-width="1.1" stroke-linecap="round" stroke-linejoin="round"/>
<path d="M15.7893 4.97741L14.4067 6.31609C14.1653 6.54652 13.7922 6.62333 13.4959 6.46971C12.6949 6.04177 11.7732 5.80037 10.8076 5.80037C10.5443 5.80037 10.259 5.82232 9.98464 5.85523C7.43895 6.20636 5.38703 8.30217 5.09077 10.8588C4.71769 14.0958 7.06588 16.8829 10.1492 17.2231C10.5223 17.267 10.7966 17.5961 10.7966 17.9802V19.692C10.7966 20.3832 10.3687 20.7453 9.88589 20.7015C5.22244 20.2406 1.57947 16.3233 1.57947 11.5501V11.2429C1.72211 6.34901 5.89179 2.34393 10.7966 2.34393C12.5742 2.34393 14.2421 2.83771 15.6466 3.71553C16.0965 3.98986 16.1623 4.62628 15.7893 4.98838V4.97741Z" stroke="black" stroke-width="1.1" stroke-linecap="round" stroke-linejoin="round"/>
<path d="M19.4433 12.1536H17.5779C17.1719 12.1536 16.8208 11.8574 16.7659 11.4623C16.6562 10.5296 16.316 9.67377 15.8113 8.92762C15.5918 8.6094 15.6467 8.17049 15.932 7.90714L17.2816 6.60138C17.6328 6.26122 18.2143 6.31609 18.5106 6.71111C19.4652 8.0059 20.0797 9.56404 20.2553 11.2429C20.2991 11.7257 19.937 12.1536 19.4542 12.1536H19.4433Z" stroke="black" stroke-width="1.1" stroke-linecap="round" stroke-linejoin="round"/>
</svg>
